<?xml version="1.0" encoding="UTF-8" standalone="no"?>
<!-- Created with Inkscape (http://www.inkscape.org/) -->

<svg
   xmlns:dc="http://purl.org/dc/elements/1.1/"
   xmlns:cc="http://creativecommons.org/ns#"
   xmlns:rdf="http://www.w3.org/1999/02/22-rdf-syntax-ns#"
   xmlns:svg="http://www.w3.org/2000/svg"
   xmlns="http://www.w3.org/2000/svg"
   xmlns:sodipodi="http://sodipodi.sourceforge.net/DTD/sodipodi-0.dtd"
   xmlns:inkscape="http://www.inkscape.org/namespaces/inkscape"
   version="1.1"
   id="svg2"
   xml:space="preserve"
   width="27"
   height="27"
   viewBox="0 0 27 27"
   sodipodi:docname="Logo rosso.pdf"
   inkscape:export-filename="/home/crux/sofud/repo/app/assets/images/icone/sofud.svg.png"
   inkscape:export-xdpi="96"
   inkscape:export-ydpi="96"
   style="enable-background:new"
   inkscape:version="0.92.1 r15371"><metadata
     id="metadata8"><rdf:RDF><cc:Work
         rdf:about=""><dc:format>image/svg+xml</dc:format><dc:type
           rdf:resource="http://purl.org/dc/dcmitype/StillImage" /><dc:title></dc:title></cc:Work></rdf:RDF></metadata><defs
     id="defs6"><clipPath
       clipPathUnits="userSpaceOnUse"
       id="clipPath20"><path
         d="M 0,595.28 H 595.28 V 0 H 0 Z"
         id="path18"
         inkscape:connector-curvature="0" /></clipPath></defs><sodipodi:namedview
     pagecolor="#ffffff"
     bordercolor="#666666"
     borderopacity="1"
     objecttolerance="10"
     gridtolerance="10"
     guidetolerance="10"
     inkscape:pageopacity="0"
     inkscape:pageshadow="2"
     inkscape:window-width="1366"
     inkscape:window-height="709"
     id="namedview4"
     showgrid="false"
     inkscape:zoom="1"
     inkscape:cx="356.86963"
     inkscape:cy="51"
     inkscape:window-x="162"
     inkscape:window-y="1077"
     inkscape:window-maximized="1"
     inkscape:current-layer="g10" /><g
     id="g10"
     inkscape:groupmode="layer"
     inkscape:label="Logo rosso"
     transform="matrix(1.3333333,0,0,-1.3333333,0,27)"
     style="opacity:1"><g
       id="g14"
       style="fill:#ffffff"
       inkscape:export-xdpi="94.680725"
       inkscape:export-ydpi="94.680725"
       transform="matrix(0.04858236,0,0,0.04858236,-4.2919088,-5.1680962)"><g
         id="g16"
         clip-path="url(#clipPath20)"
         style="fill:#ffffff"><g
           id="g22"
           transform="translate(200.2187,266.5225)"
           style="fill:#ffffff"><path
             d="M 0,0 C 0,0 -15.818,-3.76 -15.818,-11.021 -15.818,-16.725 -4.278,-16.984 0,0 M 41.101,21.912 C 38.896,18.541 32.024,6.483 12.188,2.723 V 1.815 c -0.26,-19.188 -12.707,-23.337 -19.578,-23.337 -2.982,0 -12.706,2.852 -12.706,11.28 0,11.02 20.226,14.91 20.226,14.91 0,0 2.723,15.299 0.389,28.264 0,0 -0.13,0.649 -0.13,1.816 -2.593,-4.279 -5.964,-9.595 -9.465,-14.392 -2.463,-3.371 -5.445,-0.648 -3.371,2.333 4.408,6.484 12.188,18.152 14.392,25.802 0.778,3.112 2.593,9.594 4.927,7.779 2.982,-2.334 11.539,-8.168 11.539,-15.559 0,-7.001 -5.575,-7.001 -6.223,-33.58 11.15,2.464 19.318,7.779 25.801,17.504 1.945,2.852 5.834,1.555 3.112,-2.723"
             style="fill:#ffffff;fill-opacity:1;fill-rule:nonzero;stroke:none"
             id="path24"
             inkscape:connector-curvature="0" /></g><g
           id="g26"
           transform="translate(266.0791,262.2441)"
           style="fill:#ffffff"><path
             d="m 0,0 c -0.389,-0.519 -0.907,-1.167 -1.426,-1.686 0,0 -0.648,-0.777 -1.815,-2.074 -6.223,-6.482 -13.873,-12.187 -21.004,-13.224 -0.13,-0.13 -0.259,-0.13 -0.389,-0.13 -0.26,0 -0.519,0 -0.648,-0.13 h -1.297 c -5.186,0 -13.873,2.594 -13.873,16.337 0,23.208 24.894,48.231 39.026,48.231 7.26,0 12.447,-4.798 15.688,-10.243 0.519,-0.908 -0.518,-2.723 -6.353,-2.723 -21.522,0 -43.564,-46.157 -32.284,-46.157 7.65,0 21.782,15.3 21.782,15.3 0,0 -1.167,3.241 -1.167,7.908 0,10.502 12.836,15.17 12.836,4.279 C 9.076,13.354 6.742,9.205 2.593,3.76 2.982,3.371 4.408,2.853 5.057,2.853 c 6.223,0 12.187,9.723 22.689,25.542 1.815,2.852 5.835,1.425 2.982,-2.723 C 28.265,21.782 15.688,-1.686 4.667,-1.686 2.723,-1.686 1.038,-0.778 0,0"
             style="fill:#ffffff;fill-opacity:1;fill-rule:nonzero;stroke:none"
             id="path28"
             inkscape:connector-curvature="0" /></g><g
           id="g30"
           transform="translate(391.9687,357.021)"
           style="fill:#ffffff"><path
             d="m 0,0 c -2.853,1.296 -7.131,2.334 -9.983,2.463 -13.095,1.556 -24.634,-7.908 -24.764,-7.908 l -0.259,-0.519 0.519,-0.259 c 7.779,-3.242 15.299,-7.391 25.152,-7.391 8.039,0 16.077,1.426 17.114,4.668 C 9.076,-5.964 5.964,-2.593 0,0 m 13.743,-14.262 c -1.944,-9.724 -18.8,-13.225 -32.283,-11.799 -7.391,0.908 -15.3,2.853 -21.394,5.446 -1.295,0.519 -2.592,1.297 -3.759,1.815 -3.242,-5.964 -9.465,-16.725 -13.355,-22.949 l -0.389,-0.648 3.5,-0.907 c 1.039,-0.26 8.428,-3.242 17.116,-3.242 1.425,0 2.463,0.13 2.981,0.389 0,0 1.167,0.389 2.075,0.389 0.908,0 1.296,-0.129 1.686,-0.778 0.259,-1.166 1.556,-4.797 -9.076,-9.076 -1.816,-0.518 -4.02,-0.907 -7.002,-0.907 -8.427,0 -5.834,0 -16.336,2.593 l -2.074,0.389 -0.39,-0.389 c -14.521,-22.819 -30.209,-50.306 -29.82,-57.566 0.259,-4.019 -9.076,0.778 -9.724,12.447 -0.26,6.223 1.426,10.502 7.909,22.3 l 10.631,17.633 c 0.908,1.685 1.945,3.241 3.112,4.797 l 0.389,0.648 -1.167,0.13 c 0,0 -0.389,0.13 -1.037,1.945 -1.556,4.278 3.371,9.205 8.946,11.409 0.649,0.259 1.556,0.519 2.593,0.649 l 0.13,0.129 0.259,0.26 c 1.297,1.815 2.075,2.592 3.501,4.408 5.186,7.131 10.631,17.633 13.484,22.689 -1.815,1.167 -49.788,25.023 -75.589,25.023 -19.448,0 -31.117,-8.038 -31.894,-22.041 -0.39,-7.65 4.278,-12.965 8.168,-16.207 5.704,-4.667 14.521,-8.168 21.263,-8.168 10.242,0 17.114,5.057 17.244,12.966 0.389,3.371 -0.519,5.834 -2.723,7.649 -3.112,2.463 -7.26,2.723 -8.816,2.723 h -0.13 c 0.778,3.501 5.445,4.927 9.724,4.927 5.445,0 11.28,-2.075 15.04,-5.057 2.982,-2.463 4.408,-5.445 4.278,-8.816 -0.648,-12.447 -15.817,-25.542 -37.081,-25.542 -8.427,0 -17.244,3.242 -24.245,8.946 -7.779,6.353 -12.187,15.17 -11.669,23.986 0.908,17.763 16.725,35.655 44.99,35.655 23.079,0 66.642,-18.281 79.089,-23.986 1.167,1.296 15.819,11.021 35.656,8.687 7.519,-0.648 14.65,-3.76 19.577,-8.557 4.798,-4.409 7.261,-9.724 6.612,-14.392"
             style="fill:#ffffff;fill-opacity:1;fill-rule:nonzero;stroke:none"
             id="path32"
             inkscape:connector-curvature="0" /></g><g
           id="g34"
           transform="translate(378.6094,266.6523)"
           style="fill:#ffffff"><path
             d="m 0,0 c 0,0 -15.429,-21.652 -23.338,-21.652 -5.574,0 -11.409,4.019 -10.632,13.873 0.649,9.076 23.468,37.859 24.376,50.046 0.259,2.982 12.058,-1.556 11.28,-11.928 -0.778,-10.372 -31.247,-46.675 -22.69,-46.675 3.241,0 42.786,43.822 43.823,58.732 0.26,2.983 11.41,-2.852 10.632,-13.353 -0.778,-10.502 -30.21,-45.509 -22.43,-45.509 3.889,0 25.283,22.82 36.822,40.193 1.814,2.722 5.834,1.426 2.981,-2.723 C 48.102,16.726 19.708,-21.652 7.909,-21.652 -1.426,-21.652 -5.186,-6.742 0,0"
             style="fill:#ffffff;fill-opacity:1;fill-rule:nonzero;stroke:none"
             id="path36"
             inkscape:connector-curvature="0" /></g><g
           id="g38"
           transform="translate(461.0654,298.6768)"
           style="fill:#ffffff"><path
             d="m 0,0 c -6.354,0 -35.914,-31.376 -35.914,-46.286 0,0 0.129,-1.037 1.037,-1.037 C -27.228,-47.323 8.298,0 0,0 m 33.45,-8.298 c 1.946,2.853 5.835,1.556 3.113,-2.723 -2.723,-4.148 -31.377,-42.656 -43.175,-42.656 -6.094,0 -11.929,4.15 -11.929,16.726 0,0 -12.965,-16.726 -18.54,-16.726 -5.445,0 -13.743,4.408 -13.743,16.077 0,17.893 31.116,48.232 43.563,48.232 9.205,0 11.928,-7.65 11.928,-7.65 0,0 28.395,45.249 28.395,52.64 0,4.149 11.02,3.759 11.02,-12.966 0,-14.91 -55.881,-89.591 -46.805,-89.591 3.89,0 24.764,21.393 36.173,38.637"
             style="fill:#ffffff;fill-opacity:1;fill-rule:nonzero;stroke:none"
             id="path40"
             inkscape:connector-curvature="0" /></g><g
           id="g42"
           transform="translate(178.7749,355.8945)"
           style="fill:#ffffff"><path
             d="m 0,0 c -3.997,-0.426 -7.993,-0.848 -12.243,-1.3 -0.186,0.9 -0.384,1.874 -0.646,3.148 4.069,0.548 8.006,1.079 12.003,1.617 C -0.569,2.596 -0.287,1.816 0,1.038 Z"
             style="fill:#ffffff;fill-opacity:1;fill-rule:evenodd;stroke:none"
             id="path44"
             inkscape:connector-curvature="0" /></g><g
           id="g46"
           transform="translate(154.3989,385.4531)"
           style="fill:#ffffff"><path
             d="M 0,0 C 0.662,-0.342 1.329,-0.684 2.329,-1.201 1.295,-4.887 0.24,-8.646 -0.883,-12.654 c -0.991,0.196 -1.865,0.369 -3.114,0.616 1.203,4.163 2.343,8.1 3.477,12.038 z"
             style="fill:#ffffff;fill-opacity:1;fill-rule:evenodd;stroke:none"
             id="path48"
             inkscape:connector-curvature="0" /></g><g
           id="g50"
           transform="translate(116.0151,339.2793)"
           style="fill:#ffffff"><path
             d="m 0,0 c 0.017,-5.428 4.57,-9.9 9.985,-9.809 5.284,0.094 9.715,4.614 9.682,9.885 C 19.633,5.381 15.214,9.816 9.905,9.882 4.512,9.947 -0.021,5.423 0,0 M 20.924,34.102 C 16.4,28.631 17.004,24.33 22.056,20.949 21.232,18.27 20.131,15.805 19.831,13.248 19.679,11.947 20.713,10.271 21.658,9.133 24.19,6.066 27.517,5.948 32.429,8.436 33.682,-0.88 42.313,-1.75 46.938,3.849 47.326,-1.25 47.132,-5.98 45.854,-10.648 43.76,-18.271 40.207,-25.193 34.83,-30.943 24.899,-41.565 19.211,-54.271 16.21,-68.228 c -1.569,-7.313 -2.325,-14.811 -3.216,-22.255 -0.257,-2.153 -0.565,-3.811 -3.081,-3.795 -2.561,0.013 -2.903,1.777 -3.021,3.896 -0.717,12.922 -3.136,25.502 -7.972,37.553 -3.152,7.844 -7.529,14.904 -13.286,21.145 -6.314,6.85 -10.817,14.729 -12.644,23.967 -3.979,20.137 10.437,40.158 30.833,42.984 5.736,0.796 11.332,0.538 17.101,-1.165"
             style="fill:#ffffff;fill-opacity:1;fill-rule:evenodd;stroke:none"
             id="path52"
             inkscape:connector-curvature="0" /></g><g
           id="g54"
           transform="translate(161.3745,363.8516)"
           style="fill:#ffffff"><path
             d="M 0,0 C -0.709,0.891 -1.329,1.665 -2.063,2.59 1.118,5.281 4.136,7.833 7.326,10.527 8.031,9.637 8.647,8.865 9.382,7.941 6.2,5.248 3.187,2.697 0,0"
             style="fill:#ffffff;fill-opacity:1;fill-rule:evenodd;stroke:none"
             id="path56"
             inkscape:connector-curvature="0" /></g></g></g></g></svg>